<svg width="170" height="45" viewBox="0 0 170 45" fill="none" xmlns="http://www.w3.org/2000/svg">
<g clip-path="url(#clip0_2004_257)">
<path d="M39.2183 0.21776C44.274 0.21776 52.655 -0.670962 57.7263 2.88072C60.3884 4.74376 62.1602 9.0519 62.1602 11.4381C62.1602 15.3973 60.5624 19.6787 56.4946 21.8542C63.3285 24.9224 68.5367 35.8261 60.0719 42.1767C58.1983 43.5822 55.1878 44.4628 52.8186 44.8323H10.9225C10.5152 44.8323 9.60181 43.6806 10.1044 43.116L21.1829 27.0635H0.970597C0.589298 27.0635 0.0502806 26.214 0.00348487 25.753C-0.256492 23.1112 14.8464 4.65694 16.8326 0.671865C18.025 0.0692695 36.2217 0.160781 39.2166 0.21776H39.2183Z" fill="#0C176C"/>
<path d="M54.2998 18.9059L53.4013 20.1685C52.2327 21.4517 50.6451 22.181 48.9398 22.4665H29.1149C27.8927 22.5577 27.9758 24.2967 28.9245 24.4636C29.875 24.6287 52.9425 24.596 52.9425 24.596C54.9802 24.9814 57.1201 26.1029 57.9822 28.0518C57.9822 28.0518 41.4711 28.0621 41.3118 28.0518C41.1525 28.0415 40.7093 27.7353 40.6314 27.6768C40.1293 27.3035 39.7329 26.5862 39.7761 25.9498L28.7635 25.9016C25.8307 25.0846 26.2376 21.2487 29.3469 21.0044L39.7138 21.0148C39.8575 20.4557 39.9319 19.9724 40.3682 19.5492C40.5344 19.3892 41.0573 18.9042 41.5213 18.9076H54.2963L54.2998 18.9059Z" fill="white"/>
<path d="M28.1659 35.3455C27.8822 34.7436 27.2544 34.3262 26.528 34.3262C25.5335 34.3262 24.7275 35.1057 24.7275 36.0697C24.7275 37.0337 25.5335 37.8132 26.528 37.8132C27.2925 37.8132 27.948 37.3505 28.2074 36.6967L31.7945 36.7755C31.8775 37.7663 32.6662 38.6045 33.6883 38.732L52.6062 38.7135C53.9102 38.4956 55.1538 37.9625 56.1621 37.1393C56.7242 36.6816 57.3866 36.0177 57.6409 35.3455H28.1659ZM26.528 36.8962C26.0558 36.8962 25.6753 36.5257 25.6753 36.0697C25.6753 35.6137 26.0558 35.2432 26.528 35.2432C27.0002 35.2432 27.3789 35.6137 27.3789 36.0697C27.3789 36.5257 26.9984 36.8962 26.528 36.8962ZM27.9307 35.3471H27.9289L27.9307 35.3455V35.3471Z" fill="white"/>
<path d="M27.4951 35.7089V35.712L27.492 35.7089H27.4951Z" fill="white"/>
<path d="M22.2839 31.1879C22.2992 30.6626 22.5482 30.1966 22.9285 29.8848C22.5346 30.1949 22.2668 30.6626 22.2839 31.1879Z" fill="white"/>
<path d="M58.7207 29.9901H26.1356C25.8564 29.3505 25.2218 28.9036 24.4849 28.9036C24.0913 28.9036 23.7289 29.0315 23.4324 29.2488C23.4151 29.2611 23.3995 29.2716 23.3839 29.2839C23.3683 29.2961 23.3527 29.3084 23.3388 29.3207C22.9521 29.6431 22.699 30.1251 22.6834 30.6683C22.6816 30.6876 22.6816 30.7086 22.6816 30.7279C22.6816 31.7339 23.4896 32.5505 24.4849 32.5505C25.2929 32.5505 25.9778 32.0125 26.2067 31.2729H35.7188C35.4865 31.9442 36.5424 33.3093 37.1493 33.3093H58.7207C58.8733 32.207 58.8733 31.0889 58.7207 29.9901ZM24.4849 31.5919C24.0133 31.5919 23.6301 31.2046 23.6301 30.7279C23.6301 30.2512 24.0133 29.8639 24.4849 29.8639C24.9565 29.8639 25.3397 30.2512 25.3397 30.7279C25.3397 31.2046 24.9565 31.5919 24.4849 31.5919Z" fill="white"/>
<path d="M55.1561 13.6528H39.4101C38.886 13.6528 37.9767 15.0215 38.1763 15.6962H30.135C29.9077 14.9532 29.2205 14.4117 28.4084 14.4117C27.4123 14.4117 26.6037 15.2283 26.6037 16.236C26.6037 17.2437 27.4123 18.0586 28.4084 18.0586C29.1424 18.0586 29.7723 17.617 30.0552 16.9843H55.1561C55.2862 15.8803 55.2862 14.7604 55.1561 13.6528ZM28.4084 17.0982C27.9364 17.0982 27.5529 16.7127 27.5529 16.2343C27.5529 15.7558 27.9364 15.372 28.4084 15.372C28.8804 15.372 29.2639 15.7576 29.2639 16.2343C29.2639 16.7109 28.8804 17.0982 28.4084 17.0982Z" fill="white"/>
<path d="M53.3075 9.34214C52.8345 8.96101 51.1945 7.96383 49.8946 7.74107L39.3589 7.72192C38.3421 7.85071 37.5549 8.70867 37.4721 9.71804L33.9815 9.79636C33.7139 9.13852 33.0717 8.67561 32.3208 8.67561C31.903 8.67561 31.5163 8.82005 31.2125 9.06369C31.1607 9.10372 31.1124 9.14723 31.0657 9.19247C31.0657 9.19421 31.064 9.19421 31.0623 9.19595C31.0174 9.2412 30.9742 9.28819 30.9345 9.33692C30.9138 9.36302 30.8931 9.38913 30.8741 9.41523C30.8551 9.44134 30.8361 9.46744 30.8189 9.49528C30.8016 9.52313 30.7844 9.55097 30.7671 9.58056C30.7516 9.6084 30.736 9.63799 30.7205 9.66757C30.7067 9.69716 30.6911 9.72674 30.6791 9.75633C30.6652 9.78765 30.6532 9.81898 30.6411 9.84857C30.5841 10.0052 30.5461 10.1723 30.5323 10.3445C30.5306 10.3794 30.5271 10.4142 30.5271 10.449V10.536C30.5254 10.5499 30.5271 10.5656 30.5271 10.5795C30.5289 10.616 30.5323 10.6543 30.5375 10.6926C30.5392 10.7152 30.5427 10.7379 30.5461 10.7622C30.5858 11.025 30.6825 11.2686 30.8206 11.481C31.1417 11.9735 31.6941 12.2972 32.3208 12.2972C33.0717 12.2972 33.7139 11.8342 33.9832 11.1764H54.9129C54.6609 10.4907 53.7788 9.72326 53.3075 9.34214ZM32.3795 11.3278C31.9099 11.3278 31.5301 10.945 31.5301 10.4716C31.5301 9.99823 31.9099 9.61362 32.3795 9.61362C32.849 9.61362 33.2305 9.99649 33.2305 10.4716C33.2305 10.9467 32.8507 11.3278 32.3795 11.3278Z" fill="white"/>
<path d="M79.0551 21.119H70.6222V0.266052H77.9859C78.8676 0.266052 79.6605 0.504981 80.3649 0.984534C81.0675 1.47086 81.6268 2.11309 82.0361 2.90952C82.4454 3.70595 82.6517 4.58203 82.6517 5.53944V7.1323C82.6517 8.31 82.3704 9.26741 81.8093 10.0011C82.5221 10.3909 83.0218 10.9518 83.3049 11.6872C83.5812 12.4311 83.7193 13.1614 83.7193 13.8765V15.6033C83.7193 16.6132 83.5146 17.5283 83.1037 18.3518C82.6944 19.1838 82.1384 19.8532 81.4324 20.3581C80.7281 20.8631 79.9368 21.1139 79.0534 21.1139L79.0551 21.119ZM77.9876 8.35406C78.1496 8.35406 78.3099 8.23883 78.4685 8.00837C78.6288 7.77791 78.709 7.48476 78.709 7.1323V5.53944C78.709 5.17511 78.6288 4.87857 78.4685 4.64981C78.3082 4.42952 78.1462 4.31768 77.9876 4.31768H74.5803V8.35406H77.9876ZM78.8965 17.0673C79.0023 17.0673 79.1455 16.9335 79.3246 16.6691C79.5036 16.3946 79.5906 16.0405 79.5906 15.6067V13.8799C79.5906 13.4105 79.5019 13.0479 79.3246 12.792C79.1472 12.5362 79.0023 12.4074 78.8965 12.4074H74.5786V17.069H78.8965V17.0673Z" fill="#5887F4"/>
<path d="M85.5801 4.1312V0.306641H95.6979V4.11934L85.5801 4.13289V4.1312ZM85.5801 12.6056V8.781H95.6979V12.592L85.5801 12.6056ZM85.5801 21.1307V17.3062H95.6979V21.1189L85.5801 21.1324V21.1307Z" fill="#5887F4"/>
<path d="M103.581 21.263C101.63 21.263 100.164 20.7885 99.1849 19.8413C98.2043 18.894 97.7148 17.5926 97.7148 15.9354V14.5137H101.937V16.1607C101.937 17.2859 102.473 17.8536 103.542 17.8621C104.04 17.8621 104.432 17.7367 104.719 17.4893C105.004 17.2419 105.147 16.7809 105.147 16.1082C105.147 15.3118 104.928 14.5984 104.492 13.9714C104.047 13.3512 103.235 12.6124 102.06 11.7516C100.483 10.5925 99.3725 9.52156 98.7312 8.53873C98.09 7.56438 97.7677 6.47649 97.7677 5.27168C97.7677 3.63476 98.2793 2.34522 99.3042 1.40645C100.321 0.467677 101.789 -0.00170898 103.714 -0.00170898C105.64 -0.00170898 107.086 0.467677 108.058 1.40645C109.03 2.35369 109.514 3.66018 109.514 5.32421V6.4409H105.292V5.12595C105.292 4.47016 105.157 4.02281 104.891 3.78557C104.625 3.53817 104.241 3.41277 103.742 3.41277C102.717 3.41277 102.205 3.96519 102.205 5.07342C102.205 5.76309 102.434 6.4121 102.887 7.01366C103.341 7.61521 104.161 8.35403 105.346 9.2318C106.924 10.3841 108.024 11.4533 108.648 12.4446C109.27 13.4359 109.584 14.5831 109.584 15.8845C109.584 17.5655 109.073 18.8855 108.048 19.843C107.014 20.7902 105.525 21.2647 103.585 21.2647H103.583L103.581 21.263Z" fill="#5887F4"/>
<path d="M119.714 21.1189H115.719V4.07871H111.174V0.25415H124.271V4.07871H119.714V21.1189Z" fill="#5887F4"/>
<path d="M139.296 21.1189H134.872L131.117 13.5901H130.262V21.1189H126.294V0.25415H133.859C134.787 0.25415 135.607 0.523581 136.318 1.06583C137.031 1.60639 137.597 2.30453 138.015 3.16536C138.434 4.02279 138.644 4.97173 138.644 6.00709V7.82702C138.644 8.34215 138.586 8.88101 138.47 9.44699C138.15 11.0229 137.467 12.187 136.425 12.9394C136.033 13.2224 135.719 13.3986 135.489 13.4715L139.297 21.1206L139.296 21.1189ZM133.854 9.75031C133.989 9.75031 134.156 9.58933 134.362 9.27245C134.567 8.95218 134.669 8.47263 134.669 7.82363V6.0037C134.669 5.26827 134.423 4.6718 133.934 4.21088C133.845 4.12277 133.707 4.07702 133.52 4.07702H130.244L130.257 9.74862H133.852L133.854 9.75031Z" fill="#5887F4"/>
<path d="M147.66 21.263C146.823 21.263 145.977 21.1477 145.121 20.9173C144.585 20.758 144.131 20.5445 143.756 20.2801C141.858 18.9262 140.908 16.8894 140.908 14.1714V7.38306C140.908 4.65486 141.857 2.61973 143.756 1.27427C144.131 1.00992 144.585 0.796413 145.121 0.637127C145.975 0.406671 146.821 0.291443 147.66 0.291443C148.499 0.291443 149.323 0.401587 150.16 0.623571C150.712 0.801497 151.152 1.02179 151.483 1.28613C152.346 1.93175 153.039 2.79257 153.555 3.86352C153.975 4.81076 154.185 5.98338 154.185 7.38306V14.1697C154.185 15.5609 153.975 16.7386 153.555 17.7028C153.037 18.7652 152.346 19.6244 151.483 20.2785C150.61 20.9325 149.335 21.2613 147.662 21.2613L147.66 21.263ZM147.581 17.1741C148.09 17.1741 148.598 17.0724 149.106 16.8691C149.863 16.4878 150.242 15.5897 150.242 14.1731V7.38645C150.242 5.93424 149.861 5.04461 149.106 4.71587C148.606 4.49558 148.093 4.38374 147.569 4.38374C147.089 4.38374 146.606 4.48202 146.127 4.6752C145.833 4.80907 145.6 4.9853 145.433 5.20728C145.04 5.78173 144.844 6.50868 144.844 7.38476V14.1714C144.844 15.0559 145.04 15.7829 145.433 16.3488C145.62 16.5962 145.847 16.7742 146.113 16.8809C146.611 17.0758 147.102 17.1724 147.583 17.1724L147.581 17.1741Z" fill="#5887F4"/>
<path d="M169.98 21.1189H166.105L160.358 9.93672V21.1189H156.362V0.240601H160.237L165.998 11.4754V0.254157H169.993L169.98 21.1172V21.1189Z" fill="#5887F4"/>
<path d="M76.5346 44.8051H73.7685V33.0095H70.6222V30.3626H79.6895V33.0095H76.5346V44.8051Z" fill="#5887F4"/>
<path d="M81.0781 33.0468V30.3999H88.082V33.0383L81.0781 33.0485V33.0468ZM81.0781 38.9115V36.2647H88.082V38.9031L81.0781 38.9132V38.9115ZM81.0781 44.8136V42.1667H88.082V44.8068L81.0781 44.817V44.8136Z" fill="#5887F4"/>
<path d="M94.6031 44.8051H93.2985C92.5891 44.8051 91.9445 44.6221 91.3646 44.2527C90.7848 43.8901 90.3261 43.4037 89.9867 42.792C89.6473 42.1854 89.4785 41.5143 89.4785 40.7789V34.2245C89.4785 33.489 89.649 32.8146 89.9867 32.2012C90.3261 31.5945 90.7848 31.1082 91.3646 30.7405C91.9445 30.3779 92.5891 30.1982 93.2985 30.1982H94.6406C95.3552 30.1982 95.9998 30.3796 96.5728 30.7405C97.1458 31.0963 97.6062 31.5827 97.9507 32.2012C98.2901 32.8129 98.4589 33.4484 98.4589 34.1041V35.3361H95.5359V34.1041C95.5359 33.8279 95.4456 33.5805 95.2682 33.3585C95.084 33.1433 94.8726 33.0366 94.6389 33.0366H93.2968C93.0564 33.0366 92.8432 33.1484 92.659 33.3772C92.4748 33.5975 92.381 33.8805 92.381 34.2228V40.7772C92.381 41.1144 92.4731 41.3974 92.659 41.6228C92.8432 41.8498 93.0564 41.9634 93.2968 41.9634H94.6014C95.1318 41.9634 95.4217 41.699 95.4711 41.172C95.4967 40.95 95.5086 40.4976 95.5086 39.8113H98.4214C98.4214 40.8399 98.4095 41.477 98.3856 41.7228C98.2014 42.7954 97.6079 43.6444 96.6086 44.2696C96.0288 44.6255 95.3603 44.8034 94.6014 44.8034H94.6031V44.8051Z" fill="#5887F4"/>
<path d="M108.675 44.8051H105.92V38.9115H102.616L102.606 44.8051H99.8485V30.3626H102.606L102.616 36.2545H105.92V30.3626H108.675V44.8051Z" fill="#5887F4"/>
<path d="M119.593 44.8051H116.911L112.932 37.0645V44.8051H110.166V30.3525H112.848L116.836 38.1287V30.361H119.602L119.591 44.8051H119.593Z" fill="#5887F4"/>
<path d="M125.877 44.9068C125.298 44.9068 124.711 44.8272 124.119 44.6679C123.749 44.5578 123.434 44.4103 123.174 44.2273C121.861 43.2886 121.203 41.8804 121.203 39.9978V35.2988C121.203 33.4111 121.86 32.0013 123.174 31.0693C123.434 30.8863 123.747 30.7388 124.119 30.6287C124.711 30.4694 125.296 30.3898 125.877 30.3898C126.459 30.3898 127.028 30.466 127.608 30.6202C127.99 30.7422 128.296 30.8964 128.524 31.0794C129.123 31.5268 129.6 32.1216 129.958 32.8638C130.248 33.5196 130.395 34.3313 130.395 35.3005V39.9978C130.395 40.9603 130.248 41.7753 129.958 42.443C129.6 43.1784 129.123 43.7732 128.524 44.2273C127.92 44.6815 127.037 44.9085 125.879 44.9085L125.877 44.9068ZM125.821 42.0753C126.174 42.0753 126.524 42.0041 126.875 41.8635C127.399 41.5991 127.661 40.9772 127.661 39.9961V35.2988C127.661 34.294 127.4 33.6772 126.875 33.4518C126.529 33.2976 126.174 33.2213 125.811 33.2213C125.478 33.2213 125.144 33.2891 124.812 33.423C124.609 33.5145 124.447 33.6382 124.331 33.7907C124.059 34.1889 123.923 34.6922 123.923 35.2988V39.9961C123.923 40.6078 124.058 41.1128 124.331 41.5042C124.46 41.6754 124.619 41.7991 124.803 41.8719C125.149 42.0058 125.489 42.0736 125.821 42.0736V42.0753Z" fill="#5887F4"/>
<path d="M138.978 44.805H131.9V30.3625H134.666L134.677 42.148H138.988L138.978 44.805Z" fill="#5887F4"/>
<path d="M144.778 44.9068C144.198 44.9068 143.613 44.8272 143.02 44.6679C142.65 44.5578 142.334 44.4103 142.075 44.2273C140.762 43.2886 140.103 41.8804 140.103 39.9978V35.2988C140.103 33.4111 140.76 32.0013 142.075 31.0693C142.334 30.8863 142.648 30.7388 143.02 30.6287C143.611 30.4694 144.196 30.3898 144.778 30.3898C145.359 30.3898 145.929 30.466 146.509 30.6202C146.891 30.7422 147.196 30.8964 147.425 31.0794C148.023 31.5268 148.501 32.1216 148.859 32.8638C149.149 33.5196 149.294 34.3313 149.294 35.3005V39.9978C149.294 40.9603 149.149 41.7753 148.859 42.443C148.501 43.1784 148.023 43.7732 147.425 44.2273C146.821 44.6815 145.937 44.9085 144.778 44.9085V44.9068ZM144.723 42.0753C145.076 42.0753 145.426 42.0041 145.777 41.8635C146.302 41.5991 146.563 40.9772 146.563 39.9961V35.2988C146.563 34.294 146.302 33.6772 145.777 33.4518C145.431 33.2976 145.078 33.2213 144.713 33.2213C144.38 33.2213 144.046 33.2891 143.714 33.423C143.511 33.5145 143.349 33.6382 143.233 33.7907C142.962 34.1889 142.825 34.6922 142.825 35.2988V39.9961C142.825 40.6078 142.96 41.1128 143.233 41.5042C143.362 41.6754 143.519 41.7991 143.705 41.8719C144.051 42.0058 144.391 42.0736 144.723 42.0736V42.0753Z" fill="#5887F4"/>
<path d="M156.057 44.8051H154.567C153.864 44.8051 153.224 44.617 152.651 44.2442C152.078 43.8697 151.625 43.3766 151.291 42.7649C150.958 42.1532 150.791 41.4838 150.791 40.7603V34.1601C150.791 33.4128 150.958 32.7383 151.291 32.1368C151.623 31.5301 152.077 31.0404 152.651 30.6659C153.224 30.2914 153.862 30.105 154.567 30.105H156.057C156.772 30.105 157.414 30.2914 157.981 30.6659C158.549 31.0404 159.002 31.5301 159.34 32.1368C159.512 32.4316 159.637 32.7197 159.71 33.001C159.797 33.3247 159.84 33.9635 159.84 34.9124H156.952V34.2973C156.94 33.8737 156.841 33.5331 156.656 33.2772C156.49 33.062 156.289 32.9552 156.055 32.9552H154.565C154.343 32.9552 154.14 33.0671 153.954 33.2958C153.763 33.5229 153.668 33.811 153.668 34.1601V40.762C153.668 41.0992 153.763 41.3805 153.954 41.6075C154.139 41.8414 154.343 41.9583 154.565 41.9583H156.091C156.325 41.9583 156.533 41.8414 156.712 41.6075C156.896 41.3805 156.988 41.0992 156.988 40.762L156.98 39.547H155.926V36.8899H159.84V40.9636H159.831C159.819 41.5753 159.649 42.1837 159.323 42.7835C158.99 43.3902 158.537 43.8765 157.964 44.2442C157.391 44.6187 156.755 44.8051 156.057 44.8051Z" fill="#5887F4"/>
<path d="M166.55 44.8051H163.793V37.8084L160.314 30.3626L163.375 30.3812L165.17 34.6193L166.947 30.3812H170L166.55 37.8101V44.8068V44.8051Z" fill="#5887F4"/>
</g>
<defs>
<clipPath id="clip0_2004_257">
<rect width="170" height="45" fill="white"/>
</clipPath>
</defs>
</svg>

